<svg width="44" height="43" viewBox="0 0 44 43" fill="none" xmlns="http://www.w3.org/2000/svg">
<path d="M41.25 43H2.75C1.23337 43 0 41.7947 0 40.3125V6.71875C0 5.23659 1.23337 4.03125 2.75 4.03125H13.75V1.34375C13.75 0.602 14.366 0 15.125 0C15.884 0 16.5 0.602 16.5 1.34375V4.03125H27.5V1.34375C27.5 0.602 28.116 0 28.875 0C29.634 0 30.25 0.602 30.25 1.34375V4.03125H41.25C42.7666 4.03125 44 5.23659 44 6.71875V40.3125C44 41.7947 42.7666 43 41.25 43ZM30.25 6.71875V8.0625C30.25 8.80425 29.634 9.40625 28.875 9.40625C28.116 9.40625 27.5 8.80425 27.5 8.0625V6.71875H16.5V8.0625C16.5 8.80425 15.884 9.40625 15.125 9.40625C14.366 9.40625 13.75 8.80425 13.75 8.0625V6.71875H2.75V40.3125H41.2459L41.25 6.71875H30.25ZM34.375 32.25H31.625C30.866 32.25 30.25 31.648 30.25 30.9062V28.2188C30.25 27.477 30.866 26.875 31.625 26.875H34.375C35.134 26.875 35.75 27.477 35.75 28.2188V30.9062C35.75 31.648 35.134 32.25 34.375 32.25ZM34.375 21.5H31.625C30.866 21.5 30.25 20.898 30.25 20.1562V17.4688C30.25 16.727 30.866 16.125 31.625 16.125H34.375C35.134 16.125 35.75 16.727 35.75 17.4688V20.1562C35.75 20.898 35.134 21.5 34.375 21.5ZM23.375 32.25H20.625C19.866 32.25 19.25 31.648 19.25 30.9062V28.2188C19.25 27.477 19.866 26.875 20.625 26.875H23.375C24.134 26.875 24.75 27.477 24.75 28.2188V30.9062C24.75 31.648 24.134 32.25 23.375 32.25ZM23.375 21.5H20.625C19.866 21.5 19.25 20.898 19.25 20.1562V17.4688C19.25 16.727 19.866 16.125 20.625 16.125H23.375C24.134 16.125 24.75 16.727 24.75 17.4688V20.1562C24.75 20.898 24.134 21.5 23.375 21.5ZM12.375 32.25H9.625C8.866 32.25 8.25 31.648 8.25 30.9062V28.2188C8.25 27.477 8.866 26.875 9.625 26.875H12.375C13.134 26.875 13.75 27.477 13.75 28.2188V30.9062C13.75 31.648 13.134 32.25 12.375 32.25ZM12.375 21.5H9.625C8.866 21.5 8.25 20.898 8.25 20.1562V17.4688C8.25 16.727 8.866 16.125 9.625 16.125H12.375C13.134 16.125 13.75 16.727 13.75 17.4688V20.1562C13.75 20.898 13.134 21.5 12.375 21.5Z" fill="#9E9E9E"/>
</svg>
