<svg width="54" height="55" viewBox="0 0 54 55" fill="none" xmlns="http://www.w3.org/2000/svg">
<path d="M42.0818 22.6299C32.1635 24.8153 21.7408 24.8153 11.8225 22.6299L14.8484 10.3581C22.5814 6.65976 31.3229 6.65976 39.0559 10.3581L42.0818 22.6299Z" stroke="#9E9E9E" stroke-width="3" stroke-miterlimit="10" stroke-linecap="round" stroke-linejoin="round"/>
<path d="M39.0559 29.018C40.0645 27.8413 41.0732 27.337 42.0818 27.6732C43.5948 28.3456 44.0991 31.0353 43.2586 33.725C42.418 36.4147 40.4007 38.2639 38.8878 37.5915C38.8878 37.5915 38.7197 37.5915 38.7197 37.4234C37.3748 43.3071 32.6678 47.6779 26.9522 47.6779C21.2365 47.6779 16.3614 43.3071 15.1847 37.4234L15.0165 37.5915C13.5036 38.2639 11.4863 36.4147 10.6458 33.725C9.63711 31.0353 10.1414 28.3456 11.8225 27.6732C12.8311 27.337 14.0079 27.8413 14.8484 29.018" stroke="#9E9E9E" stroke-width="3" stroke-miterlimit="10" stroke-linecap="round" stroke-linejoin="round"/>
<path d="M26.9521 12.5435V19.2678" stroke="#9E9E9E" stroke-width="3" stroke-miterlimit="10" stroke-linecap="round" stroke-linejoin="round"/>
<path d="M23.59 15.9056H30.3143" stroke="#9E9E9E" stroke-width="3" stroke-miterlimit="10" stroke-linecap="round" stroke-linejoin="round"/>
</svg>
