<svg width="60" height="60" viewBox="0 0 60 60" fill="none" xmlns="http://www.w3.org/2000/svg">
<path d="M45.9544 31.6882C48.6738 31.6882 50.8782 29.4838 50.8782 26.7644C50.8782 24.0451 48.6738 21.8406 45.9544 21.8406C43.2351 21.8406 41.0306 24.0451 41.0306 26.7644C41.0306 29.4838 43.2351 31.6882 45.9544 31.6882Z" stroke="#9E9E9E" stroke-width="3"/>
<path d="M45.9545 27.9953C46.6343 27.9953 47.1854 27.4442 47.1854 26.7644C47.1854 26.0846 46.6343 25.5334 45.9545 25.5334C45.2746 25.5334 44.7235 26.0846 44.7235 26.7644C44.7235 27.4442 45.2746 27.9953 45.9545 27.9953Z" fill="#9E9E9E"/>
<path d="M21.3355 37.843C23.375 37.843 25.0283 36.1896 25.0283 34.1501C25.0283 32.1106 23.375 30.4573 21.3355 30.4573C19.296 30.4573 17.6426 32.1106 17.6426 34.1501C17.6426 36.1896 19.296 37.843 21.3355 37.843Z" fill="#9E9E9E"/>
<path d="M21.3355 34.1501C30.1823 34.1501 33.0684 22.2285 33.5635 14.4503C33.6499 13.0934 32.5428 11.993 31.1831 11.993H28.7212" stroke="#9E9E9E" stroke-width="3" stroke-linecap="round"/>
<path d="M21.3355 34.1501C12.4887 34.1501 9.60267 22.2285 9.10746 14.4503C9.02107 13.0934 10.1283 11.993 11.4879 11.993H13.9498" stroke="#9E9E9E" stroke-width="3" stroke-linecap="round"/>
<path d="M45.9545 31.6882V36.612C45.9545 43.4103 40.4433 48.9215 33.645 48.9215C26.8467 48.9215 21.3355 43.4103 21.3355 36.612V34.1501" stroke="#9E9E9E" stroke-width="3" stroke-linecap="round"/>
</svg>
