<svg width="93" height="93" viewBox="0 0 93 93" fill="none" xmlns="http://www.w3.org/2000/svg">
<path d="M71.3719 48.2242C75.6333 48.2242 79.0878 44.7697 79.0878 40.5084C79.0878 36.247 75.6333 32.7925 71.3719 32.7925C67.1105 32.7925 63.656 36.247 63.656 40.5084C63.656 44.7697 67.1105 48.2242 71.3719 48.2242Z" stroke="white" stroke-width="3"/>
<path d="M71.3718 42.4373C72.4372 42.4373 73.3008 41.5737 73.3008 40.5084C73.3008 39.443 72.4372 38.5794 71.3718 38.5794C70.3065 38.5794 69.4429 39.443 69.4429 40.5084C69.4429 41.5737 70.3065 42.4373 71.3718 42.4373Z" fill="white"/>
<path d="M32.7925 57.8691C35.9885 57.8691 38.5794 55.2782 38.5794 52.0822C38.5794 48.8862 35.9885 46.2953 32.7925 46.2953C29.5965 46.2953 27.0056 48.8862 27.0056 52.0822C27.0056 55.2782 29.5965 57.8691 32.7925 57.8691Z" fill="white"/>
<path d="M32.7925 52.0822C46.656 52.0822 51.1787 33.4003 51.9545 21.2114C52.0899 19.0851 50.355 17.3607 48.2242 17.3607H44.3663" stroke="white" stroke-width="3" stroke-linecap="round"/>
<path d="M32.7925 52.0822C18.929 52.0822 14.4065 33.4003 13.6305 21.2114C13.4951 19.0851 15.2301 17.3607 17.3608 17.3607H21.2187" stroke="white" stroke-width="3" stroke-linecap="round"/>
<path d="M71.3719 48.2242V55.9401C71.3719 66.5934 62.7355 75.2298 52.0822 75.2298C41.4289 75.2298 32.7925 66.5934 32.7925 55.9401V52.0822" stroke="white" stroke-width="3" stroke-linecap="round"/>
</svg>
