<svg width="67" height="67" viewBox="0 0 67 67" fill="none" xmlns="http://www.w3.org/2000/svg">
<path d="M42.746 21.909H24.321C23.584 21.909 22.981 21.306 22.981 20.569V14.204C22.981 13.467 23.584 12.864 24.321 12.864H42.746C43.483 12.864 44.086 13.467 44.086 14.204V20.569C44.086 21.306 43.483 21.909 42.746 21.909ZM25.661 19.229H41.406V15.544H25.661V19.229ZM55.141 54.136H11.859C9.98302 54.136 8.44202 52.595 8.44202 50.719V22.579C8.44202 20.703 9.98302 19.162 11.859 19.162H55.141C57.017 19.162 58.558 20.703 58.558 22.579V50.719C58.558 52.662 57.017 54.136 55.141 54.136ZM11.859 21.909C11.457 21.909 11.122 22.244 11.122 22.646V50.786C11.122 51.188 11.457 51.523 11.859 51.523H55.141C55.543 51.523 55.878 51.188 55.878 50.786V22.646C55.878 22.244 55.543 21.909 55.141 21.909H11.859ZM37.118 46.498H29.882C29.145 46.498 28.542 45.895 28.542 45.158V41.071H24.455C23.718 41.071 23.115 40.468 23.115 39.731V32.629C23.115 31.892 23.718 31.289 24.455 31.289H28.542V27.202C28.542 26.465 29.145 25.862 29.882 25.862H37.051C37.788 25.862 38.391 26.465 38.391 27.202V31.289H42.478C43.215 31.289 43.818 31.892 43.818 32.629V39.798C43.818 40.535 43.215 41.138 42.478 41.138H38.391V45.225C38.458 45.895 37.855 46.498 37.118 46.498ZM31.222 43.818H35.711V39.731C35.711 38.994 36.314 38.391 37.051 38.391H41.138V33.902H37.051C36.314 33.902 35.711 33.299 35.711 32.562V28.475H31.222V32.562C31.222 33.299 30.619 33.902 29.882 33.902H25.795V38.391H29.882C30.619 38.391 31.222 38.994 31.222 39.731V43.818Z" fill="#9E9E9E"/>
</svg>
