<svg width="56" height="55" viewBox="0 0 56 55" fill="none" xmlns="http://www.w3.org/2000/svg">
<path d="M52.5 55H3.5C1.56975 55 0 53.4583 0 51.5625V8.59375C0 6.69797 1.56975 5.15625 3.5 5.15625H17.5V1.71875C17.5 0.77 18.284 0 19.25 0C20.216 0 21 0.77 21 1.71875V5.15625H35V1.71875C35 0.77 35.784 0 36.75 0C37.716 0 38.5 0.77 38.5 1.71875V5.15625H52.5C54.4303 5.15625 56 6.69797 56 8.59375V51.5625C56 53.4583 54.4303 55 52.5 55ZM38.5 8.59375V10.3125C38.5 11.2613 37.716 12.0312 36.75 12.0312C35.784 12.0312 35 11.2613 35 10.3125V8.59375H21V10.3125C21 11.2613 20.216 12.0312 19.25 12.0312C18.284 12.0312 17.5 11.2613 17.5 10.3125V8.59375H3.5V51.5625H52.4948L52.5 8.59375H38.5ZM43.75 41.25H40.25C39.284 41.25 38.5 40.48 38.5 39.5312V36.0938C38.5 35.145 39.284 34.375 40.25 34.375H43.75C44.716 34.375 45.5 35.145 45.5 36.0938V39.5312C45.5 40.48 44.716 41.25 43.75 41.25ZM43.75 27.5H40.25C39.284 27.5 38.5 26.73 38.5 25.7812V22.3438C38.5 21.395 39.284 20.625 40.25 20.625H43.75C44.716 20.625 45.5 21.395 45.5 22.3438V25.7812C45.5 26.73 44.716 27.5 43.75 27.5ZM29.75 41.25H26.25C25.284 41.25 24.5 40.48 24.5 39.5312V36.0938C24.5 35.145 25.284 34.375 26.25 34.375H29.75C30.716 34.375 31.5 35.145 31.5 36.0938V39.5312C31.5 40.48 30.716 41.25 29.75 41.25ZM29.75 27.5H26.25C25.284 27.5 24.5 26.73 24.5 25.7812V22.3438C24.5 21.395 25.284 20.625 26.25 20.625H29.75C30.716 20.625 31.5 21.395 31.5 22.3438V25.7812C31.5 26.73 30.716 27.5 29.75 27.5ZM15.75 41.25H12.25C11.284 41.25 10.5 40.48 10.5 39.5312V36.0938C10.5 35.145 11.284 34.375 12.25 34.375H15.75C16.716 34.375 17.5 35.145 17.5 36.0938V39.5312C17.5 40.48 16.716 41.25 15.75 41.25ZM15.75 27.5H12.25C11.284 27.5 10.5 26.73 10.5 25.7812V22.3438C10.5 21.395 11.284 20.625 12.25 20.625H15.75C16.716 20.625 17.5 21.395 17.5 22.3438V25.7812C17.5 26.73 16.716 27.5 15.75 27.5Z" fill="white"/>
</svg>
